Coordinates
version=1
nRows=38
nColumns=12
inDegrees=yes

Units are S.I. units (second, meters, Newtons, ...)
Angles are in degrees

endheader
time	SC_y	SC_z	SC_x	AC_y	AC_z	AC_x	GH_y	GH_z	GH_yy	EL_x	PS_y
       0.0              -17.06          5.283          53.85          36.55         -8.427          3.939         -28.76          49.24         -11.95          127.0          26.61
   0.02542              -17.07          5.287          53.85          36.55         -8.428           3.94         -28.77          49.24         -11.92          127.0          26.61
   0.05083              -17.07          5.292          53.84          36.55         -8.429          3.942         -28.78          49.23         -11.89          127.0          26.61
   0.07625              -17.08          5.297          53.84          36.56          -8.43          3.943         -28.79          49.22         -11.86          127.0          26.61
    0.1017              -17.08          5.303          53.84          36.56         -8.431          3.945          -28.8          49.22         -11.83          127.0          26.61
    0.1271              -17.09          5.308          53.83          36.56         -8.433          3.947         -28.82          49.21          -11.8          127.0          26.61
    0.1525              -17.09          5.315          53.82          36.57         -8.434          3.949         -28.83           49.2         -11.76          126.9          26.61
    0.1779               -17.1          5.321          53.82          36.57         -8.436          3.951         -28.84          49.19         -11.72          126.9          26.61
    0.2033               -17.1          5.328          53.81          36.58         -8.437          3.954         -28.86          49.19         -11.68          126.9          26.62
    0.2287              -17.11          5.336          53.81          36.58         -8.439          3.956         -28.88          49.18         -11.64          126.9          26.62
    0.2542              -17.12          5.344           53.8          36.58         -8.441          3.959         -28.89          49.17         -11.59          126.8          26.62
    0.2796              -17.13          5.353          53.79          36.59         -8.443          3.962         -28.91          49.16         -11.54          126.8          26.62
     0.305              -17.14          5.362          53.78           36.6         -8.445          3.965         -28.93          49.15         -11.49          126.8          26.62
    0.3304              -17.14          5.372          53.77           36.6         -8.448          3.968         -28.96          49.13         -11.43          126.8          26.62
    0.3558              -17.15          5.383          53.76          36.61          -8.45          3.972         -28.98          49.12         -11.36          126.7          26.63
    0.3812              -17.17          5.395          53.75          36.62         -8.453          3.976         -29.01          49.11          -11.3          126.7          26.63
    0.4066              -17.18          5.408          53.74          36.63         -8.456           3.98         -29.04          49.09         -11.22          126.7          26.63
    0.4321              -17.19          5.423          53.73          36.63          -8.46          3.984         -29.07          49.07         -11.14          126.6          26.63
    0.4575               -17.2          5.438          53.72          36.64         -8.463           3.99          -29.1          49.05         -11.05          126.6          26.64
    0.4829              -17.22          5.455           53.7          36.66         -8.467          3.995         -29.14          49.03         -10.95          126.5          26.64
    0.5083              -17.24          5.474          53.69          36.67         -8.472          4.001         -29.18          49.01         -10.84          126.5          26.64
    0.5337              -17.26          5.494          53.67          36.68         -8.476          4.008         -29.23          48.99         -10.73          126.4          26.65
    0.5591              -17.28          5.517          53.65          36.69         -8.482          4.015         -29.28          48.96          -10.6          126.3          26.65
    0.5846               -17.3          5.542          53.63          36.71         -8.488          4.023         -29.33          48.93         -10.45          126.2          26.65
      0.61              -17.32           5.57           53.6          36.73         -8.494          4.033         -29.39           48.9         -10.29          126.2          26.66
    0.6354              -17.35          5.601          53.58          36.75         -8.502          4.043         -29.46          48.86         -10.11          126.1          26.66
    0.6608              -17.38          5.635          53.55          36.77          -8.51          4.054         -29.54          48.82          -9.91          126.0          26.67
    0.6862              -17.42          5.675          53.51           36.8         -8.519          4.067         -29.63          48.77         -9.684          125.8          26.68
    0.7116              -17.46          5.719          53.47          36.82         -8.529          4.081         -29.72          48.72         -9.429          125.7          26.69
     0.737              -17.51          5.769          53.43          36.86         -8.541          4.098         -29.83          48.66         -9.139          125.6          26.69
    0.7625              -17.56          5.827          53.38          36.89         -8.555          4.117         -29.96          48.59         -8.808          125.4           26.7
    0.7879              -17.62          5.892          53.32          36.93          -8.57          4.138         -30.11          48.51         -8.428          125.2          26.72
    0.8133              -17.69          5.968          53.26          36.98         -8.588          4.163         -30.28          48.42          -7.99          125.0          26.73
    0.8387              -17.77          6.057          53.18          37.04         -8.609          4.192         -30.47          48.31          -7.48          124.7          26.75
    0.8641              -17.86           6.16          53.09           37.1         -8.633          4.226          -30.7          48.19         -6.884          124.4          26.76
    0.8895              -17.97          6.282          52.98          37.18         -8.662          4.265         -30.97          48.04         -6.181          124.0          26.79
     0.915               -18.1          6.427          52.86          37.27         -8.696          4.313         -31.29          47.87         -5.346          123.6          26.81
    0.9404              -18.26            6.6          52.71          37.38         -8.737           4.37         -31.67          47.66         -4.345          123.1          26.84
